<svg xmlns="http://www.w3.org/2000/svg" xmlns:xlink="http://www.w3.org/1999/xlink" width="500" zoomAndPan="magnify" viewBox="0 0 375 374.999991" height="500" preserveAspectRatio="xMidYMid meet" version="1.0"><defs><clipPath id="ecc93e3cf2"><path d="M 0 84.296875 L 375 84.296875 L 375 290.546875 L 0 290.546875 Z M 0 84.296875 " clip-rule="nonzero"/></clipPath></defs><g clip-path="url(#ecc93e3cf2)"><path fill="#3259b3" d="M 344.757812 107.710938 L 294.449219 138.273438 L 294.449219 125.835938 C 294.449219 102.902344 275.859375 84.3125 252.921875 84.3125 L 41.523438 84.3125 C 18.589844 84.3125 0 102.902344 0 125.835938 L 0 249.152344 C 0 272.085938 18.589844 290.675781 41.523438 290.675781 L 252.921875 290.675781 C 275.859375 290.675781 294.449219 272.085938 294.449219 249.152344 L 294.449219 236.710938 L 344.757812 267.277344 C 358.011719 275.332031 374.980469 265.789062 374.980469 250.277344 L 374.980469 124.710938 C 374.980469 109.199219 358.011719 99.652344 344.757812 107.710938 " fill-opacity="1" fill-rule="nonzero"/></g></svg>